<mxfile host="app.diagrams.net" agent="Mozilla/5.0 (Windows NT 10.0; Win64; x64) AppleWebKit/537.36 (KHTML, like Gecko) Chrome/131.0.0.0 Safari/537.36 Edg/131.0.0.0" version="27.1.6">
  <diagram name="第 1 页" id="_nxjdv4LKEOWrCiGEnSx">
    <mxGraphModel dx="1949" dy="895" grid="1" gridSize="10" guides="1" tooltips="1" connect="1" arrows="1" fold="1" page="1" pageScale="1" pageWidth="827" pageHeight="1169" math="0" shadow="0">
      <root>
        <mxCell id="0" />
        <mxCell id="1" parent="0" />
        <mxCell id="BaM5FYg3SbLam8LHmhA2-1" value="Input: 20x20 binary matrix可以画矩阵的网格图" style="whiteSpace=wrap;strokeWidth=2;" vertex="1" parent="1">
          <mxGeometry x="25" y="20" width="251" height="54" as="geometry" />
        </mxCell>
        <mxCell id="BaM5FYg3SbLam8LHmhA2-2" value="Flatten into 1D sequence" style="whiteSpace=wrap;strokeWidth=2;" vertex="1" parent="1">
          <mxGeometry x="30" y="124" width="240" height="54" as="geometry" />
        </mxCell>
        <mxCell id="BaM5FYg3SbLam8LHmhA2-3" value="Sequence of 400 values" style="whiteSpace=wrap;strokeWidth=2;" vertex="1" parent="1">
          <mxGeometry x="36" y="228" width="227" height="54" as="geometry" />
        </mxCell>
        <mxCell id="BaM5FYg3SbLam8LHmhA2-4" value="Add CLS Token: [CLS, x₁, ..., x₄₀₀]" style="whiteSpace=wrap;strokeWidth=2;" vertex="1" parent="1">
          <mxGeometry x="20" y="332" width="260" height="78" as="geometry" />
        </mxCell>
        <mxCell id="BaM5FYg3SbLam8LHmhA2-5" value="Embedding layer + Positional Encoding" style="whiteSpace=wrap;strokeWidth=2;" vertex="1" parent="1">
          <mxGeometry x="20" y="460" width="260" height="78" as="geometry" />
        </mxCell>
        <mxCell id="BaM5FYg3SbLam8LHmhA2-6" value="Transformer Encoder" style="whiteSpace=wrap;strokeWidth=2;" vertex="1" parent="1">
          <mxGeometry x="46" y="588" width="209" height="54" as="geometry" />
        </mxCell>
        <mxCell id="BaM5FYg3SbLam8LHmhA2-7" value="Extract CLS token features" style="whiteSpace=wrap;strokeWidth=2;" vertex="1" parent="1">
          <mxGeometry x="24" y="692" width="252" height="54" as="geometry" />
        </mxCell>
        <mxCell id="BaM5FYg3SbLam8LHmhA2-8" value="Linear Regression Head" style="whiteSpace=wrap;strokeWidth=2;" vertex="1" parent="1">
          <mxGeometry x="37" y="796" width="226" height="54" as="geometry" />
        </mxCell>
        <mxCell id="BaM5FYg3SbLam8LHmhA2-9" value="Predicted output: T1 and T2" style="whiteSpace=wrap;strokeWidth=2;" vertex="1" parent="1">
          <mxGeometry x="20" y="900" width="260" height="78" as="geometry" />
        </mxCell>
        <mxCell id="BaM5FYg3SbLam8LHmhA2-10" value="" style="curved=1;startArrow=none;endArrow=block;exitX=0.5;exitY=1;entryX=0.5;entryY=0;rounded=0;" edge="1" parent="1" source="BaM5FYg3SbLam8LHmhA2-1" target="BaM5FYg3SbLam8LHmhA2-2">
          <mxGeometry relative="1" as="geometry">
            <Array as="points" />
          </mxGeometry>
        </mxCell>
        <mxCell id="BaM5FYg3SbLam8LHmhA2-11" value="" style="curved=1;startArrow=none;endArrow=block;exitX=0.5;exitY=1;entryX=0.5;entryY=0;rounded=0;" edge="1" parent="1" source="BaM5FYg3SbLam8LHmhA2-2" target="BaM5FYg3SbLam8LHmhA2-3">
          <mxGeometry relative="1" as="geometry">
            <Array as="points" />
          </mxGeometry>
        </mxCell>
        <mxCell id="BaM5FYg3SbLam8LHmhA2-12" value="" style="curved=1;startArrow=none;endArrow=block;exitX=0.5;exitY=1;entryX=0.5;entryY=0;rounded=0;" edge="1" parent="1" source="BaM5FYg3SbLam8LHmhA2-3" target="BaM5FYg3SbLam8LHmhA2-4">
          <mxGeometry relative="1" as="geometry">
            <Array as="points" />
          </mxGeometry>
        </mxCell>
        <mxCell id="BaM5FYg3SbLam8LHmhA2-13" value="" style="curved=1;startArrow=none;endArrow=block;exitX=0.5;exitY=1;entryX=0.5;entryY=0;rounded=0;" edge="1" parent="1" source="BaM5FYg3SbLam8LHmhA2-4" target="BaM5FYg3SbLam8LHmhA2-5">
          <mxGeometry relative="1" as="geometry">
            <Array as="points" />
          </mxGeometry>
        </mxCell>
        <mxCell id="BaM5FYg3SbLam8LHmhA2-14" value="" style="curved=1;startArrow=none;endArrow=block;exitX=0.5;exitY=1;entryX=0.5;entryY=0;rounded=0;" edge="1" parent="1" source="BaM5FYg3SbLam8LHmhA2-5" target="BaM5FYg3SbLam8LHmhA2-6">
          <mxGeometry relative="1" as="geometry">
            <Array as="points" />
          </mxGeometry>
        </mxCell>
        <mxCell id="BaM5FYg3SbLam8LHmhA2-15" value="" style="curved=1;startArrow=none;endArrow=block;exitX=0.5;exitY=1;entryX=0.5;entryY=0;rounded=0;" edge="1" parent="1" source="BaM5FYg3SbLam8LHmhA2-6" target="BaM5FYg3SbLam8LHmhA2-7">
          <mxGeometry relative="1" as="geometry">
            <Array as="points" />
          </mxGeometry>
        </mxCell>
        <mxCell id="BaM5FYg3SbLam8LHmhA2-16" value="" style="curved=1;startArrow=none;endArrow=block;exitX=0.5;exitY=1;entryX=0.5;entryY=0;rounded=0;" edge="1" parent="1" source="BaM5FYg3SbLam8LHmhA2-7" target="BaM5FYg3SbLam8LHmhA2-8">
          <mxGeometry relative="1" as="geometry">
            <Array as="points" />
          </mxGeometry>
        </mxCell>
        <mxCell id="BaM5FYg3SbLam8LHmhA2-17" value="" style="curved=1;startArrow=none;endArrow=block;exitX=0.5;exitY=1;entryX=0.5;entryY=0;rounded=0;" edge="1" parent="1" source="BaM5FYg3SbLam8LHmhA2-8" target="BaM5FYg3SbLam8LHmhA2-9">
          <mxGeometry relative="1" as="geometry">
            <Array as="points" />
          </mxGeometry>
        </mxCell>
        <mxCell id="BaM5FYg3SbLam8LHmhA2-18" value="Input 20x20 binary matrix" style="whiteSpace=wrap;strokeWidth=2;" vertex="1" parent="1">
          <mxGeometry x="20" y="1012" width="245" height="54" as="geometry" />
        </mxCell>
        <mxCell id="BaM5FYg3SbLam8LHmhA2-19" value="Flatten to 1D sequence" style="whiteSpace=wrap;strokeWidth=2;" vertex="1" parent="1">
          <mxGeometry x="315" y="1012" width="226" height="54" as="geometry" />
        </mxCell>
        <mxCell id="BaM5FYg3SbLam8LHmhA2-20" value="Sequence of 400 values" style="whiteSpace=wrap;strokeWidth=2;" vertex="1" parent="1">
          <mxGeometry x="591" y="1012" width="227" height="54" as="geometry" />
        </mxCell>
        <mxCell id="BaM5FYg3SbLam8LHmhA2-21" value="Append CLS token at beginning" style="whiteSpace=wrap;strokeWidth=2;" vertex="1" parent="1">
          <mxGeometry x="868" y="1000" width="260" height="78" as="geometry" />
        </mxCell>
        <mxCell id="BaM5FYg3SbLam8LHmhA2-22" value="Embedding and Positional Encoding" style="whiteSpace=wrap;strokeWidth=2;" vertex="1" parent="1">
          <mxGeometry x="1178" y="1000" width="260" height="78" as="geometry" />
        </mxCell>
        <mxCell id="BaM5FYg3SbLam8LHmhA2-23" value="Transformer Encoder" style="whiteSpace=wrap;strokeWidth=2;" vertex="1" parent="1">
          <mxGeometry x="1505" y="1002" width="209" height="54" as="geometry" />
        </mxCell>
        <mxCell id="BaM5FYg3SbLam8LHmhA2-24" value="Extract CLS token feature" style="whiteSpace=wrap;strokeWidth=2;" vertex="1" parent="1">
          <mxGeometry x="1780" y="1002" width="245" height="54" as="geometry" />
        </mxCell>
        <mxCell id="BaM5FYg3SbLam8LHmhA2-25" value="Linear Regression Head" style="whiteSpace=wrap;strokeWidth=2;" vertex="1" parent="1">
          <mxGeometry x="2089" y="1002" width="226" height="54" as="geometry" />
        </mxCell>
        <mxCell id="BaM5FYg3SbLam8LHmhA2-26" value="Predicted output T1 T2" style="whiteSpace=wrap;strokeWidth=2;" vertex="1" parent="1">
          <mxGeometry x="2379" y="1002" width="225" height="54" as="geometry" />
        </mxCell>
        <mxCell id="BaM5FYg3SbLam8LHmhA2-27" value="Target response T1 T2" style="whiteSpace=wrap;strokeWidth=2;" vertex="1" parent="1">
          <mxGeometry x="28" y="1190" width="217" height="54" as="geometry" />
        </mxCell>
        <mxCell id="BaM5FYg3SbLam8LHmhA2-28" value="Embed as condition input" style="whiteSpace=wrap;strokeWidth=2;" vertex="1" parent="1">
          <mxGeometry x="316" y="1180" width="242" height="54" as="geometry" />
        </mxCell>
        <mxCell id="BaM5FYg3SbLam8LHmhA2-29" value="Transformer Decoder" style="whiteSpace=wrap;strokeWidth=2;" vertex="1" parent="1">
          <mxGeometry x="626" y="1180" width="210" height="54" as="geometry" />
        </mxCell>
        <mxCell id="BaM5FYg3SbLam8LHmhA2-30" value="MLP and Sigmoid per token" style="whiteSpace=wrap;strokeWidth=2;" vertex="1" parent="1">
          <mxGeometry x="904" y="1180" width="253" height="54" as="geometry" />
        </mxCell>
        <mxCell id="BaM5FYg3SbLam8LHmhA2-31" value="Threshold at 0.5" style="whiteSpace=wrap;strokeWidth=2;" vertex="1" parent="1">
          <mxGeometry x="1231" y="1180" width="177" height="54" as="geometry" />
        </mxCell>
        <mxCell id="BaM5FYg3SbLam8LHmhA2-32" value="Binary sequence 400 values" style="whiteSpace=wrap;strokeWidth=2;" vertex="1" parent="1">
          <mxGeometry x="1482" y="1180" width="256" height="54" as="geometry" />
        </mxCell>
        <mxCell id="BaM5FYg3SbLam8LHmhA2-33" value="Reshape to 20x20 matrix" style="whiteSpace=wrap;strokeWidth=2;" vertex="1" parent="1">
          <mxGeometry x="1789" y="1180" width="236" height="54" as="geometry" />
        </mxCell>
        <mxCell id="BaM5FYg3SbLam8LHmhA2-34" value="" style="curved=1;startArrow=none;endArrow=block;exitX=1;exitY=0.5;entryX=0;entryY=0.5;rounded=0;" edge="1" parent="1" source="BaM5FYg3SbLam8LHmhA2-18" target="BaM5FYg3SbLam8LHmhA2-19">
          <mxGeometry relative="1" as="geometry">
            <Array as="points" />
          </mxGeometry>
        </mxCell>
        <mxCell id="BaM5FYg3SbLam8LHmhA2-35" value="" style="curved=1;startArrow=none;endArrow=block;exitX=1;exitY=0.5;entryX=0;entryY=0.5;rounded=0;" edge="1" parent="1" source="BaM5FYg3SbLam8LHmhA2-19" target="BaM5FYg3SbLam8LHmhA2-20">
          <mxGeometry relative="1" as="geometry">
            <Array as="points" />
          </mxGeometry>
        </mxCell>
        <mxCell id="BaM5FYg3SbLam8LHmhA2-36" value="" style="curved=1;startArrow=none;endArrow=block;exitX=1;exitY=0.5;entryX=0;entryY=0.5;rounded=0;" edge="1" parent="1" source="BaM5FYg3SbLam8LHmhA2-20" target="BaM5FYg3SbLam8LHmhA2-21">
          <mxGeometry relative="1" as="geometry">
            <Array as="points" />
          </mxGeometry>
        </mxCell>
        <mxCell id="BaM5FYg3SbLam8LHmhA2-37" value="" style="curved=1;startArrow=none;endArrow=block;exitX=1;exitY=0.5;entryX=0;entryY=0.5;rounded=0;" edge="1" parent="1" source="BaM5FYg3SbLam8LHmhA2-21" target="BaM5FYg3SbLam8LHmhA2-22">
          <mxGeometry relative="1" as="geometry">
            <Array as="points" />
          </mxGeometry>
        </mxCell>
        <mxCell id="BaM5FYg3SbLam8LHmhA2-38" value="" style="curved=1;startArrow=none;endArrow=block;exitX=1;exitY=0.39;entryX=0;entryY=0.5;rounded=0;" edge="1" parent="1" source="BaM5FYg3SbLam8LHmhA2-22" target="BaM5FYg3SbLam8LHmhA2-23">
          <mxGeometry relative="1" as="geometry">
            <Array as="points">
              <mxPoint x="1463" y="1029" />
            </Array>
          </mxGeometry>
        </mxCell>
        <mxCell id="BaM5FYg3SbLam8LHmhA2-39" value="" style="curved=1;startArrow=none;endArrow=block;exitX=1;exitY=0.5;entryX=0;entryY=0.5;rounded=0;" edge="1" parent="1" source="BaM5FYg3SbLam8LHmhA2-23" target="BaM5FYg3SbLam8LHmhA2-24">
          <mxGeometry relative="1" as="geometry">
            <Array as="points" />
          </mxGeometry>
        </mxCell>
        <mxCell id="BaM5FYg3SbLam8LHmhA2-40" value="" style="curved=1;startArrow=none;endArrow=block;exitX=1;exitY=0.5;entryX=0;entryY=0.5;rounded=0;" edge="1" parent="1" source="BaM5FYg3SbLam8LHmhA2-24" target="BaM5FYg3SbLam8LHmhA2-25">
          <mxGeometry relative="1" as="geometry">
            <Array as="points" />
          </mxGeometry>
        </mxCell>
        <mxCell id="BaM5FYg3SbLam8LHmhA2-41" value="" style="curved=1;startArrow=none;endArrow=block;exitX=1;exitY=0.5;entryX=0;entryY=0.5;rounded=0;" edge="1" parent="1" source="BaM5FYg3SbLam8LHmhA2-25" target="BaM5FYg3SbLam8LHmhA2-26">
          <mxGeometry relative="1" as="geometry">
            <Array as="points" />
          </mxGeometry>
        </mxCell>
        <mxCell id="BaM5FYg3SbLam8LHmhA2-42" value="" style="curved=1;startArrow=none;endArrow=block;exitX=1;exitY=0.5;entryX=0;entryY=0.65;rounded=0;" edge="1" parent="1" source="BaM5FYg3SbLam8LHmhA2-27" target="BaM5FYg3SbLam8LHmhA2-28">
          <mxGeometry relative="1" as="geometry">
            <Array as="points">
              <mxPoint x="291" y="1217" />
            </Array>
          </mxGeometry>
        </mxCell>
        <mxCell id="BaM5FYg3SbLam8LHmhA2-43" value="" style="curved=1;startArrow=none;endArrow=block;exitX=1;exitY=0.5;entryX=0;entryY=0.5;rounded=0;" edge="1" parent="1" source="BaM5FYg3SbLam8LHmhA2-28" target="BaM5FYg3SbLam8LHmhA2-29">
          <mxGeometry relative="1" as="geometry">
            <Array as="points" />
          </mxGeometry>
        </mxCell>
        <mxCell id="BaM5FYg3SbLam8LHmhA2-44" value="" style="curved=1;startArrow=none;endArrow=block;exitX=1;exitY=0.5;entryX=0;entryY=0.5;rounded=0;" edge="1" parent="1" source="BaM5FYg3SbLam8LHmhA2-29" target="BaM5FYg3SbLam8LHmhA2-30">
          <mxGeometry relative="1" as="geometry">
            <Array as="points" />
          </mxGeometry>
        </mxCell>
        <mxCell id="BaM5FYg3SbLam8LHmhA2-45" value="" style="curved=1;startArrow=none;endArrow=block;exitX=1;exitY=0.5;entryX=0;entryY=0.5;rounded=0;" edge="1" parent="1" source="BaM5FYg3SbLam8LHmhA2-30" target="BaM5FYg3SbLam8LHmhA2-31">
          <mxGeometry relative="1" as="geometry">
            <Array as="points" />
          </mxGeometry>
        </mxCell>
        <mxCell id="BaM5FYg3SbLam8LHmhA2-46" value="" style="curved=1;startArrow=none;endArrow=block;exitX=1;exitY=0.5;entryX=0;entryY=0.5;rounded=0;" edge="1" parent="1" source="BaM5FYg3SbLam8LHmhA2-31" target="BaM5FYg3SbLam8LHmhA2-32">
          <mxGeometry relative="1" as="geometry">
            <Array as="points" />
          </mxGeometry>
        </mxCell>
        <mxCell id="BaM5FYg3SbLam8LHmhA2-47" value="" style="curved=1;startArrow=none;endArrow=block;exitX=1;exitY=0.5;entryX=0;entryY=0.5;rounded=0;" edge="1" parent="1" source="BaM5FYg3SbLam8LHmhA2-32" target="BaM5FYg3SbLam8LHmhA2-33">
          <mxGeometry relative="1" as="geometry">
            <Array as="points" />
          </mxGeometry>
        </mxCell>
        <mxCell id="BaM5FYg3SbLam8LHmhA2-48" value="" style="curved=1;dashed=1;dashPattern=2 3;startArrow=none;endArrow=block;exitX=0.95;exitY=1;entryX=0.22;entryY=0;rounded=0;" edge="1" parent="1" source="BaM5FYg3SbLam8LHmhA2-22" target="BaM5FYg3SbLam8LHmhA2-28">
          <mxGeometry relative="1" as="geometry">
            <Array as="points">
              <mxPoint x="1463" y="1091" />
            </Array>
          </mxGeometry>
        </mxCell>
        <mxCell id="BaM5FYg3SbLam8LHmhA2-49" value="Input 20x20 binary matrix加矩阵网格的表示" style="whiteSpace=wrap;strokeWidth=2;" vertex="1" parent="1">
          <mxGeometry x="358" y="1340" width="245" height="54" as="geometry" />
        </mxCell>
        <mxCell id="BaM5FYg3SbLam8LHmhA2-50" value="Flatten to 1D sequence" style="whiteSpace=wrap;strokeWidth=2;" vertex="1" parent="1">
          <mxGeometry x="367" y="1444" width="226" height="54" as="geometry" />
        </mxCell>
        <mxCell id="BaM5FYg3SbLam8LHmhA2-51" value="Sequence of 400 values" style="whiteSpace=wrap;strokeWidth=2;" vertex="1" parent="1">
          <mxGeometry x="366" y="1548" width="227" height="54" as="geometry" />
        </mxCell>
        <mxCell id="BaM5FYg3SbLam8LHmhA2-52" value="Append CLS token at beginning" style="whiteSpace=wrap;strokeWidth=2;" vertex="1" parent="1">
          <mxGeometry x="350" y="1652" width="260" height="78" as="geometry" />
        </mxCell>
        <mxCell id="BaM5FYg3SbLam8LHmhA2-53" value="Embedding and Positional Encoding" style="whiteSpace=wrap;strokeWidth=2;" vertex="1" parent="1">
          <mxGeometry x="350" y="1780" width="260" height="78" as="geometry" />
        </mxCell>
        <mxCell id="BaM5FYg3SbLam8LHmhA2-54" value="Transformer Encoder" style="whiteSpace=wrap;strokeWidth=2;" vertex="1" parent="1">
          <mxGeometry x="376" y="1908" width="209" height="54" as="geometry" />
        </mxCell>
        <mxCell id="BaM5FYg3SbLam8LHmhA2-55" value="Extract CLS token feature" style="whiteSpace=wrap;strokeWidth=2;" vertex="1" parent="1">
          <mxGeometry x="357" y="2012" width="245" height="54" as="geometry" />
        </mxCell>
        <mxCell id="BaM5FYg3SbLam8LHmhA2-56" value="Linear Regression Head" style="whiteSpace=wrap;strokeWidth=2;" vertex="1" parent="1">
          <mxGeometry x="367" y="2116" width="226" height="54" as="geometry" />
        </mxCell>
        <mxCell id="BaM5FYg3SbLam8LHmhA2-57" value="Predicted output T1 T2" style="whiteSpace=wrap;strokeWidth=2;" vertex="1" parent="1">
          <mxGeometry x="367" y="2220" width="225" height="54" as="geometry" />
        </mxCell>
        <mxCell id="BaM5FYg3SbLam8LHmhA2-58" value="Target response T1 T2" style="whiteSpace=wrap;strokeWidth=2;" vertex="1" parent="1">
          <mxGeometry x="689" y="1340" width="217" height="54" as="geometry" />
        </mxCell>
        <mxCell id="BaM5FYg3SbLam8LHmhA2-59" value="Embed as condition input" style="whiteSpace=wrap;strokeWidth=2;" vertex="1" parent="1">
          <mxGeometry x="677" y="1444" width="242" height="54" as="geometry" />
        </mxCell>
        <mxCell id="BaM5FYg3SbLam8LHmhA2-60" value="Transformer Decoder" style="whiteSpace=wrap;strokeWidth=2;" vertex="1" parent="1">
          <mxGeometry x="693" y="1548" width="210" height="54" as="geometry" />
        </mxCell>
        <mxCell id="BaM5FYg3SbLam8LHmhA2-61" value="MLP and Sigmoid per token" style="whiteSpace=wrap;strokeWidth=2;" vertex="1" parent="1">
          <mxGeometry x="671" y="1652" width="253" height="54" as="geometry" />
        </mxCell>
        <mxCell id="BaM5FYg3SbLam8LHmhA2-62" value="Threshold at 0.5" style="whiteSpace=wrap;strokeWidth=2;" vertex="1" parent="1">
          <mxGeometry x="709" y="1756" width="177" height="54" as="geometry" />
        </mxCell>
        <mxCell id="BaM5FYg3SbLam8LHmhA2-63" value="Binary sequence 400 values" style="whiteSpace=wrap;strokeWidth=2;" vertex="1" parent="1">
          <mxGeometry x="670" y="1860" width="256" height="54" as="geometry" />
        </mxCell>
        <mxCell id="BaM5FYg3SbLam8LHmhA2-64" value="Reshape to 20x20 matrix" style="whiteSpace=wrap;strokeWidth=2;" vertex="1" parent="1">
          <mxGeometry x="680" y="1964" width="236" height="54" as="geometry" />
        </mxCell>
        <mxCell id="BaM5FYg3SbLam8LHmhA2-65" value="" style="curved=1;startArrow=none;endArrow=block;exitX=0.5;exitY=1;entryX=0.5;entryY=0;rounded=0;" edge="1" parent="1" source="BaM5FYg3SbLam8LHmhA2-49" target="BaM5FYg3SbLam8LHmhA2-50">
          <mxGeometry relative="1" as="geometry">
            <Array as="points" />
          </mxGeometry>
        </mxCell>
        <mxCell id="BaM5FYg3SbLam8LHmhA2-66" value="" style="curved=1;startArrow=none;endArrow=block;exitX=0.5;exitY=1;entryX=0.5;entryY=0;rounded=0;" edge="1" parent="1" source="BaM5FYg3SbLam8LHmhA2-50" target="BaM5FYg3SbLam8LHmhA2-51">
          <mxGeometry relative="1" as="geometry">
            <Array as="points" />
          </mxGeometry>
        </mxCell>
        <mxCell id="BaM5FYg3SbLam8LHmhA2-67" value="" style="curved=1;startArrow=none;endArrow=block;exitX=0.5;exitY=1;entryX=0.5;entryY=0;rounded=0;" edge="1" parent="1" source="BaM5FYg3SbLam8LHmhA2-51" target="BaM5FYg3SbLam8LHmhA2-52">
          <mxGeometry relative="1" as="geometry">
            <Array as="points" />
          </mxGeometry>
        </mxCell>
        <mxCell id="BaM5FYg3SbLam8LHmhA2-68" value="" style="curved=1;startArrow=none;endArrow=block;exitX=0.5;exitY=1;entryX=0.5;entryY=0;rounded=0;" edge="1" parent="1" source="BaM5FYg3SbLam8LHmhA2-52" target="BaM5FYg3SbLam8LHmhA2-53">
          <mxGeometry relative="1" as="geometry">
            <Array as="points" />
          </mxGeometry>
        </mxCell>
        <mxCell id="BaM5FYg3SbLam8LHmhA2-69" value="" style="curved=1;startArrow=none;endArrow=block;exitX=0.5;exitY=1;entryX=0.5;entryY=0;rounded=0;" edge="1" parent="1" source="BaM5FYg3SbLam8LHmhA2-53" target="BaM5FYg3SbLam8LHmhA2-54">
          <mxGeometry relative="1" as="geometry">
            <Array as="points" />
          </mxGeometry>
        </mxCell>
        <mxCell id="BaM5FYg3SbLam8LHmhA2-70" value="" style="curved=1;startArrow=none;endArrow=block;exitX=0.5;exitY=1;entryX=0.5;entryY=0;rounded=0;" edge="1" parent="1" source="BaM5FYg3SbLam8LHmhA2-54" target="BaM5FYg3SbLam8LHmhA2-55">
          <mxGeometry relative="1" as="geometry">
            <Array as="points" />
          </mxGeometry>
        </mxCell>
        <mxCell id="BaM5FYg3SbLam8LHmhA2-71" value="" style="curved=1;startArrow=none;endArrow=block;exitX=0.5;exitY=1;entryX=0.5;entryY=0;rounded=0;" edge="1" parent="1" source="BaM5FYg3SbLam8LHmhA2-55" target="BaM5FYg3SbLam8LHmhA2-56">
          <mxGeometry relative="1" as="geometry">
            <Array as="points" />
          </mxGeometry>
        </mxCell>
        <mxCell id="BaM5FYg3SbLam8LHmhA2-72" value="" style="curved=1;startArrow=none;endArrow=block;exitX=0.5;exitY=1;entryX=0.5;entryY=0;rounded=0;" edge="1" parent="1" source="BaM5FYg3SbLam8LHmhA2-56" target="BaM5FYg3SbLam8LHmhA2-57">
          <mxGeometry relative="1" as="geometry">
            <Array as="points" />
          </mxGeometry>
        </mxCell>
        <mxCell id="BaM5FYg3SbLam8LHmhA2-74" value="" style="curved=1;startArrow=none;endArrow=block;exitX=0.5;exitY=1;entryX=0.5;entryY=0;rounded=0;" edge="1" parent="1" source="BaM5FYg3SbLam8LHmhA2-58" target="BaM5FYg3SbLam8LHmhA2-59">
          <mxGeometry relative="1" as="geometry">
            <Array as="points" />
          </mxGeometry>
        </mxCell>
        <mxCell id="BaM5FYg3SbLam8LHmhA2-75" value="" style="curved=1;startArrow=none;endArrow=block;exitX=0.5;exitY=1;entryX=0.5;entryY=0;rounded=0;" edge="1" parent="1" source="BaM5FYg3SbLam8LHmhA2-59" target="BaM5FYg3SbLam8LHmhA2-60">
          <mxGeometry relative="1" as="geometry">
            <Array as="points" />
          </mxGeometry>
        </mxCell>
        <mxCell id="BaM5FYg3SbLam8LHmhA2-76" value="" style="curved=1;startArrow=none;endArrow=block;exitX=0.5;exitY=1;entryX=0.5;entryY=0;rounded=0;" edge="1" parent="1" source="BaM5FYg3SbLam8LHmhA2-60" target="BaM5FYg3SbLam8LHmhA2-61">
          <mxGeometry relative="1" as="geometry">
            <Array as="points" />
          </mxGeometry>
        </mxCell>
        <mxCell id="BaM5FYg3SbLam8LHmhA2-77" value="" style="curved=1;startArrow=none;endArrow=block;exitX=0.5;exitY=1;entryX=0.5;entryY=0;rounded=0;" edge="1" parent="1" source="BaM5FYg3SbLam8LHmhA2-61" target="BaM5FYg3SbLam8LHmhA2-62">
          <mxGeometry relative="1" as="geometry">
            <Array as="points" />
          </mxGeometry>
        </mxCell>
        <mxCell id="BaM5FYg3SbLam8LHmhA2-78" value="" style="curved=1;startArrow=none;endArrow=block;exitX=0.5;exitY=1;entryX=0.5;entryY=0;rounded=0;" edge="1" parent="1" source="BaM5FYg3SbLam8LHmhA2-62" target="BaM5FYg3SbLam8LHmhA2-63">
          <mxGeometry relative="1" as="geometry">
            <Array as="points" />
          </mxGeometry>
        </mxCell>
        <mxCell id="BaM5FYg3SbLam8LHmhA2-79" value="" style="curved=1;startArrow=none;endArrow=block;exitX=0.5;exitY=1;entryX=0.5;entryY=0;rounded=0;" edge="1" parent="1" source="BaM5FYg3SbLam8LHmhA2-63" target="BaM5FYg3SbLam8LHmhA2-64">
          <mxGeometry relative="1" as="geometry">
            <Array as="points" />
          </mxGeometry>
        </mxCell>
      </root>
    </mxGraphModel>
  </diagram>
</mxfile>
